<?xml version="1.0" encoding="UTF-8"?>
<svg id="Capa_1" data-name="Capa 1" xmlns="http://www.w3.org/2000/svg" viewBox="0 0 135.18 100.86">
  <defs>
    <style>
      .cls-1 {
        fill: #e88a41;
      }

      .cls-2 {
        fill: #171c35;
      }
    </style>
  </defs>
  <g>
    <path class="cls-1" d="M106.39,15.43l-3.65-1.14.9-2.88c1.67-5.36,7.39-8.36,12.75-6.69,5.36,1.67,8.36,7.39,6.69,12.75l-.9,2.88-3.65-1.14.9-2.88c1.04-3.35-.83-6.92-4.18-7.96s-6.92.83-7.96,4.18l-.9,2.88Z"/>
    <path class="cls-1" d="M111.24,36.77c-.18.77-.8,1.63-1.87,2.56l-8.78,7.9,5.58,7.87c.67.94.97,1.76.9,2.47l-.38-.12-2.65-.82-.62-.19-.61-.19-1.87-.58-.62-.19-.61-.19-3.52-1.1-.61-.19-.97-1.36-.88.79-.43-.13-2.48-.77-.43-.13-.6-.19-.43-.13-2.48-.77-.43-.13,4.34-3.91-5.61-7.9c-.65-.87-.93-1.67-.85-2.39l.49-1.19c.35-.5.88-1.02,1.59-1.58.86-.67,1.57-1.1,2.16-1.3.59-.2,1.11-.17,1.58.08.47.26.92.74,1.37,1.46l5.26,7.42,8.23-7.42c.76-.72,1.41-1.2,1.97-1.46.56-.25,1.09-.28,1.6-.08.51.2,1.05.63,1.64,1.3.88.96,1.22,1.83,1.04,2.6Z"/>
    <path class="cls-1" d="M129.85,24.56l-7.64,35.39c-.01.1-.04.21-.07.31-.31,1.01-1.38,1.57-2.39,1.26l-9.41-2.93c.03-.12.05-.24.07-.36.27-1.65-.22-3.37-1.47-5.1l-3.82-5.4,6.49-5.84c1.63-1.43,2.59-2.85,2.95-4.35.31-1.32.24-3.37-1.82-5.65-.95-1.08-1.91-1.8-2.93-2.2-1.38-.54-2.85-.49-4.26.15-.9.41-1.85,1.09-2.87,2.06l-5.36,4.83-2.98-4.21c-.75-1.19-1.6-2.04-2.59-2.57-1.32-.71-2.8-.81-4.3-.3-.06.02-.11.04-.17.06l6.74-16.31c.38-.91,1.39-1.39,2.33-1.09,2.13.66,4.25,1.33,6.38,1.99,1.21.38,2.43.76,3.65,1.14,4.05,1.26,8.1,2.52,12.14,3.79,1.21.38,2.43.76,3.65,1.14,2.13.66,4.25,1.33,6.38,1.99.94.29,1.5,1.26,1.3,2.23Z"/>
  </g>
  <g>
    <path class="cls-1" d="M37.13,95.13c-1.63,0-2.97-.2-4.02-.6-1.05-.4-1.89-.87-2.5-1.42s-1.06-1.05-1.34-1.5c-.28-.45-.45-.73-.51-.84-.4-.67-.61-1.27-.62-1.8-.01-.53.17-1.07.56-1.6.39-.53.98-1.12,1.77-1.76.73-.59,1.4-.91,2-.98.6-.07,1.16.06,1.66.38s.97.79,1.38,1.4c.5.72.94,1.21,1.35,1.46.4.25.9.38,1.48.38.72,0,1.32-.09,1.81-.26.49-.17.88-.44,1.16-.8s.48-.82.6-1.38c.09-.45-.06-.81-.47-1.06s-.95-.47-1.65-.66-1.48-.39-2.34-.62c-.86-.23-1.69-.53-2.5-.9-.49-.21-.96-.48-1.4-.8-.44-.32-.84-.69-1.2-1.1s-.64-.91-.84-1.48-.32-1.22-.35-1.94c-.03-.72.05-1.53.23-2.44.33-1.63,1.02-3.08,2.1-4.36,1.07-1.28,2.39-2.29,3.97-3.04,1.58-.75,3.27-1.12,5.09-1.12,1.31,0,2.41.11,3.3.32.89.21,1.61.47,2.15.76.54.29.95.57,1.22.82s.44.42.5.5c.72.8,1.06,1.49,1.03,2.06-.03.57-.52,1.39-1.45,2.46-1.03,1.15-1.95,1.79-2.75,1.94-.8.15-1.65-.1-2.53-.74-.18-.16-.36-.34-.53-.54-.17-.2-.43-.37-.76-.52s-.86-.22-1.58-.22c-.27,0-.54.05-.83.14-.29.09-.54.21-.75.36s-.41.33-.57.54c-.16.21-.27.44-.32.68-.11.56.01.99.38,1.3.36.31.89.54,1.56.7.67.16,1.42.32,2.24.48.82.16,1.65.37,2.47.64.67.24,1.3.55,1.9.92.59.37,1.08.85,1.47,1.44.39.59.65,1.31.78,2.18.13.87.07,1.93-.18,3.18-.35,1.73-.98,3.21-1.89,4.42-.91,1.21-1.97,2.19-3.17,2.92-1.2.73-2.43,1.27-3.68,1.6s-2.4.5-3.44.5Z"/>
    <path class="cls-1" d="M52.83,94.69c-1.2,0-2.02-.18-2.45-.54-.44-.36-.65-.83-.64-1.4s.07-1.15.19-1.74l4.14-20.65c.12-.59.29-1.16.5-1.72.22-.56.62-1.02,1.2-1.38.58-.36,1.48-.54,2.71-.54s2.05.18,2.47.54c.42.36.63.82.62,1.38,0,.56-.07,1.15-.19,1.76l-4.14,20.65c-.12.59-.29,1.16-.51,1.72-.22.56-.62,1.02-1.2,1.38-.58.36-1.48.54-2.71.54ZM58.05,83.84l1.25-6.24h10.41l-1.25,6.24h-10.41ZM69.28,94.69c-1.2,0-2.02-.18-2.45-.54s-.65-.83-.64-1.4c0-.57.07-1.15.19-1.74l4.14-20.65c.12-.59.29-1.16.51-1.72.22-.56.62-1.02,1.2-1.38s1.48-.54,2.71-.54,2.05.18,2.47.54.63.82.62,1.38c0,.56-.07,1.15-.19,1.76l-4.14,20.65c-.12.59-.29,1.16-.5,1.72-.22.56-.62,1.02-1.2,1.38s-1.48.54-2.71.54Z"/>
    <path class="cls-1" d="M88.59,95.17c-1.95,0-3.7-.37-5.24-1.1-1.55-.73-2.83-1.75-3.85-3.06-1.02-1.31-1.72-2.82-2.11-4.54-.39-1.72-.39-3.56,0-5.5s1.14-3.92,2.2-5.68c1.06-1.76,2.35-3.31,3.87-4.64,1.52-1.33,3.19-2.38,5.01-3.12,1.82-.75,3.67-1.12,5.57-1.12s3.69.37,5.24,1.1c1.55.73,2.83,1.75,3.85,3.06s1.71,2.83,2.08,4.58c.37,1.75.35,3.64-.06,5.66-.4,1.97-1.12,3.83-2.18,5.56-1.06,1.73-2.35,3.26-3.88,4.58-1.53,1.32-3.19,2.36-4.98,3.1-1.79.75-3.63,1.12-5.53,1.12ZM89.86,87.84c.91,0,1.8-.18,2.67-.54s1.67-.85,2.4-1.48,1.34-1.37,1.85-2.24c.51-.87.86-1.79,1.06-2.78s.21-1.91.03-2.76c-.18-.85-.5-1.61-.97-2.26-.47-.65-1.06-1.16-1.78-1.52-.72-.36-1.51-.54-2.39-.54s-1.79.18-2.65.54c-.86.36-1.65.87-2.39,1.52-.73.65-1.36,1.41-1.87,2.26-.52.85-.88,1.77-1.07,2.76s-.2,1.87-.03,2.72c.17.85.5,1.61.97,2.26.47.65,1.06,1.16,1.78,1.52.71.36,1.51.54,2.39.54Z"/>
    <path class="cls-1" d="M107.98,94.69c-1.2,0-2.02-.18-2.45-.54-.44-.36-.65-.83-.64-1.4s.07-1.15.19-1.74l4.14-20.65c.12-.59.29-1.16.5-1.72.22-.56.62-1.02,1.2-1.38.58-.36,1.48-.54,2.71-.54h7.96c1.01,0,2.07.21,3.16.62,1.09.41,2.08,1.05,2.96,1.9.88.85,1.53,1.92,1.94,3.2.41,1.28.44,2.8.09,4.56-.35,1.73-.98,3.24-1.91,4.52-.92,1.28-2,2.34-3.22,3.18-1.22.84-2.46,1.47-3.72,1.88-1.26.41-2.41.62-3.45.62h-4.28l-.77,3.84c-.12.59-.29,1.16-.51,1.72-.22.56-.62,1.02-1.2,1.38-.58.36-1.48.54-2.71.54ZM114.63,79.88h4.32c.35,0,.76-.09,1.25-.26.49-.17.95-.47,1.38-.9.43-.43.72-1.01.87-1.76.11-.56.08-1.06-.1-1.5-.18-.44-.46-.79-.85-1.04s-.86-.38-1.42-.38h-4.28l-1.17,5.84Z"/>
  </g>
  <g>
    <path class="cls-2" d="M22.98,61.18c-1.17,0-1.98-.17-2.42-.52-.44-.35-.65-.8-.65-1.36,0-.56.07-1.16.2-1.8l4.14-20.65c.12-.59.28-1.15.5-1.7.22-.55.61-1,1.19-1.36.58-.36,1.48-.54,2.71-.54.83,0,1.42.05,1.79.16.36.11.62.24.76.4s.28.35.43.56l6.15,10.65h-.24l10.37-10.61c.33-.29.62-.52.88-.68.26-.16.59-.28.99-.36.4-.08.96-.12,1.68-.12,1.2,0,2.02.18,2.45.54.43.36.65.82.64,1.38s-.07,1.15-.19,1.76l-4.14,20.65c-.12.59-.29,1.16-.51,1.72-.22.56-.62,1.02-1.19,1.36-.58.35-1.48.52-2.71.52s-2.02-.18-2.45-.54c-.43-.36-.65-.83-.64-1.4,0-.57.07-1.15.19-1.74l2.28-11.37-5.96,6.36c-.13.13-.33.33-.6.6-.27.27-.62.51-1.06.72-.44.21-1.02.32-1.75.32s-1.27-.11-1.64-.32c-.37-.21-.64-.45-.8-.7-.16-.25-.28-.46-.36-.62l-3.37-6.32-2.29,11.41c-.12.59-.29,1.16-.51,1.72-.22.56-.62,1.02-1.19,1.36-.58.35-1.48.52-2.71.52Z"/>
    <path class="cls-2" d="M79.26,56.14c.24.8.32,1.48.23,2.04-.09.56-.36,1.05-.82,1.48-.46.43-1.14.85-2.06,1.28-1.4.61-2.43.81-3.08.58-.65-.23-1.15-.99-1.5-2.3l-4.01-13.93-9.53,13.97c-.89,1.26-1.71,1.99-2.45,2.22-.74.23-1.67.03-2.8-.58-.75-.4-1.27-.81-1.57-1.24-.3-.43-.38-.92-.24-1.48.14-.56.49-1.24,1.05-2.04l14.22-20.81c.45-.64,1.03-1.15,1.73-1.54.7-.39,1.39-.58,2.06-.58.48,0,.91.09,1.29.26.38.17.71.42.99.74s.48.71.61,1.16l5.88,20.77ZM59.67,55.42l4.29-6.24h6.6l1.79,6.24h-12.69Z"/>
    <path class="cls-2" d="M104.94,60.22c-.85.64-1.57,1.06-2.15,1.26-.59.2-1.11.17-1.57-.08-.46-.25-.92-.73-1.4-1.42l-14.67-20.65c-.69-.93-.97-1.79-.83-2.56.14-.77.83-1.64,2.06-2.6.85-.67,1.57-1.1,2.16-1.3.59-.2,1.11-.17,1.58.08.47.25.93.74,1.37,1.46l14.66,20.69c.71.99,1,1.85.88,2.58-.12.73-.82,1.58-2.11,2.54ZM81.2,60.22c-.87-.96-1.23-1.81-1.07-2.54.16-.73.79-1.59,1.9-2.58l22.96-20.69c.76-.72,1.42-1.21,1.97-1.46.56-.25,1.09-.28,1.6-.08.51.2,1.05.63,1.64,1.3.87.96,1.22,1.83,1.04,2.6-.18.77-.81,1.63-1.87,2.56l-22.95,20.65c-.73.69-1.37,1.17-1.95,1.42-.57.25-1.11.28-1.62.08-.51-.2-1.06-.62-1.65-1.26Z"/>
  </g>
  <g>
    <path class="cls-2" d="M12.58,67.89s0,.01,0,.03v-.03Z"/>
    <polygon class="cls-2" points="12.58 67.89 12.58 67.89 12.58 67.89 12.58 67.89"/>
    <polygon class="cls-2" points="12.58 67.89 12.58 67.89 12.58 67.89 12.58 67.89"/>
    <path class="cls-2" d="M25.72,75.05h-10.92c-1.47,0-2.68-.99-2.68-2.2h0c0-1.21,1.2-2.2,2.68-2.2h10.92c1.47,0,2.68.99,2.68,2.2h0c0,1.21-1.2,2.2-2.68,2.2Z"/>
    <path class="cls-2" d="M20.64,92.08h-8.97c-1.21,0-2.2-.99-2.2-2.2h0c0-1.21.99-2.2,2.2-2.2h8.97c1.21,0,2.2.99,2.2,2.2h0c0,1.21-.99,2.2-2.2,2.2Z"/>
    <path class="cls-2" d="M25.18,83.81H5.2c-1.36,0-2.48-1.12-2.48-2.48h0c0-1.36,1.12-2.48,2.48-2.48h19.98c1.36,0,2.48,1.12,2.48,2.48h0c0,1.36-1.12,2.48-2.48,2.48Z"/>
  </g>
</svg>